# xmcd
#
# Track frame offsets:
#	150
#	22765
#	42905
#	64925
#	83535
#	101420
#	122065
#	140645
#	159460
#	181130
#	201895
#
# Disc length: 2946 seconds
#
# Revision: 0
# Processed by: cddbd v1.4PL0 Copyright (c) Steve Scherf et al.
# Submitted via: EZCDDA 4.3.3.2
#
DISCID=880b800b
DTITLE=Marta Plantier
DYEAR=1900
DGENRE=
TTITLE0=O Sonho é Ser Feliz (vou ser eu)
TTITLE1=Asas nos Sapatos
TTITLE2=Vocês sabem lá
TTITLE3=Remédio Santo
TTITLE4=Código de Acesso
TTITLE5=Qual é o Segredo
TTITLE6=Onde Está Aquele Amor
TTITLE7=Até à Meia Noite
TTITLE8=Assim Contigo
TTITLE9=I'm Sorry, Desculpa
TTITLE10=Voar
EXTD=
EXTT0=
EXTT1=
EXTT2=
EXTT3=
EXTT4=
EXTT5=
EXTT6=
EXTT7=
EXTT8=
EXTT9=
EXTT10=
PLAYORDER=
